<svg width="156" height="339" viewBox="0 0 156 339" fill="none" xmlns="http://www.w3.org/2000/svg">
<path fill-rule="evenodd" clip-rule="evenodd" d="M86.7586 17.6504C86.7586 23.3914 83.0689 28.0451 78.5175 28.0451C73.9664 28.0451 70.2767 23.3914 70.2767 17.6504C70.2767 11.9095 73.9664 7.25574 78.5175 7.25574C83.0689 7.25574 86.7586 11.9095 86.7586 17.6504Z" fill="#19141E"/>
<mask id="mask0" mask-type="alpha" maskUnits="userSpaceOnUse" x="38" y="12" width="48" height="47">
<path d="M67.2571 58.8294L66.9122 46.8904C66.9122 46.8904 81.3809 48.0456 84.4762 46.4334C84.4762 46.4334 88.2592 26.8904 83.7473 16.068L83.6559 15.6466L53.1227 12.0655L51.4109 29.6339C50.3824 26.5919 41.8939 23.1427 39.6752 27.4987C34.8666 36.9375 52.0597 43.2929 52.0597 43.2929L50.3139 58.9726" fill="white"/>
</mask>
<g mask="url(#mask0)">
<path d="M67.2571 58.8294L66.9122 46.8904C66.9122 46.8904 81.3809 48.0456 84.4762 46.4334C84.4762 46.4334 88.2592 26.8904 83.7473 16.068L83.6559 15.6466L53.1227 12.0655L51.4109 29.6339C50.3824 26.5919 41.8939 23.1427 39.6752 27.4987C34.8666 36.9375 52.0597 43.2929 52.0597 43.2929L50.3139 58.9726" fill="#E576C6"/>
<path d="M86.0584 11.998H38.8264V59.2518H86.0584V11.998Z" fill="#E576C6"/>
</g>
<path opacity="0.398926" fill-rule="evenodd" clip-rule="evenodd" d="M66.9123 46.8902L57.1556 44.7926L66.8655 51.3695L66.9123 46.8902Z" fill="black"/>
<path fill-rule="evenodd" clip-rule="evenodd" d="M74.7114 29.4106L78.0827 37.6753L74.0423 37.7269L74.7114 29.4106Z" fill="#405FD3"/>
<path fill-rule="evenodd" clip-rule="evenodd" d="M71.1162 29.7288C71.3171 30.8417 70.5798 31.9071 69.47 32.1082C68.3599 32.3096 67.2973 31.5704 67.0968 30.4578C66.8959 29.3448 67.6328 28.2794 68.7429 28.078C69.853 27.8769 70.9152 28.6158 71.1162 29.7288Z" fill="#0D0B6D"/>
<path fill-rule="evenodd" clip-rule="evenodd" d="M82.4455 29.7288C82.6464 30.8417 81.9091 31.9071 80.7994 32.1082C79.6892 32.3096 78.6266 31.5704 78.4261 30.4578C78.2252 29.3448 78.9621 28.2794 80.0722 28.078C81.1823 27.8769 82.2446 28.6158 82.4455 29.7288Z" fill="#0D0B6D"/>
<path fill-rule="evenodd" clip-rule="evenodd" d="M53.6782 32.6324C50.7832 27.6643 46.5947 26.1492 44.7146 25.7049C43.9648 23.5317 43.3931 21.0114 42.9915 18.3309C41.9144 11.157 47.1164 4.61177 51.3182 2.7323C55.5715 0.830279 62.9052 -1.80549 73.64 1.77238C80.857 4.17944 85.4701 -1.58333 89.7168 0.877911C96.9737 5.08482 90.2238 23.5029 71.8227 18.824C58.6603 15.477 58.3219 16.3166 58.2091 18.7494C57.8442 26.6134 56.6212 31.2397 53.6782 32.6324Z" fill="#19141E"/>
<path fill-rule="evenodd" clip-rule="evenodd" d="M69.0987 38.0341C69.0987 38.0341 70.3959 40.3975 73.1997 40.3416L69.0987 38.0341Z" fill="white"/>
<path d="M69.0987 38.0341C69.0987 38.0341 70.3959 40.3975 73.1997 40.3416" stroke="#252535" stroke-width="4"/>
<mask id="mask1" mask-type="alpha" maskUnits="userSpaceOnUse" x="6" y="311" width="103" height="28">
<path d="M79.3863 317.368L79.2729 327.159C79.2729 327.159 101.201 330.617 108.634 339H64.9465L66.7765 311.009L79.3863 317.368ZM23.4244 316.543L23.3106 327.541C23.3106 327.541 32.5466 328.748 36.3061 339H6.40477L8.58809 326.933L15.2034 323.245L23.4244 316.543Z" fill="white"/>
</mask>
<g mask="url(#mask1)">
<path d="M79.3863 317.368L79.2729 327.159C79.2729 327.159 101.201 330.617 108.634 339H64.9465L66.7765 311.009L79.3863 317.368ZM23.4244 316.543L23.3106 327.541C23.3106 327.541 32.5466 328.748 36.3061 339H6.40477L8.58809 326.933L15.2034 323.245L23.4244 316.543Z" fill="#0D0B6D"/>
<path d="M108.445 325H2.77364V340.218H108.445V325Z" fill="#5E93D1"/>
</g>
<mask id="mask2" mask-type="alpha" maskUnits="userSpaceOnUse" x="8" y="312" width="72" height="16">
<path d="M66.7765 313.575L79.3863 317.368L79.273 327.159L65.7599 326.551L66.7765 313.575ZM10.8146 312.75L23.4244 316.544L23.3106 327.541L8.58772 326.932L10.8146 312.75Z" fill="white"/>
</mask>
<g mask="url(#mask2)">
<path d="M66.7765 313.575L79.3863 317.368L79.273 327.159L65.7599 326.551L66.7765 313.575ZM10.8146 312.75L23.4244 316.544L23.3106 327.541L8.58772 326.932L10.8146 312.75Z" fill="#CF3E83"/>
<path d="M79.2538 309.721H6.40444V333.749H79.2538V309.721Z" fill="#CF3E83"/>
</g>
<mask id="mask3" mask-type="alpha" maskUnits="userSpaceOnUse" x="6" y="126" width="81" height="198">
<path d="M81.1934 314.158L80.9026 323.245H64.2695L64.5612 314.131C62.6978 313.382 61.3663 311.582 61.3209 309.456L58.6436 173.344L29.7142 310.761C29.3066 312.694 27.8745 314.195 26.0559 314.748L24.9683 323.245H7.52834L9.02929 313.864C7.57703 312.737 6.73538 310.883 7.02491 308.903L33.6589 126.775L57.7276 126.775L57.7262 126.706H86.8779L85.1305 309.201C85.1063 311.601 83.4388 313.609 81.1934 314.158Z" fill="white"/>
</mask>
<g mask="url(#mask3)">
<path d="M81.1934 314.158L80.9026 323.245H64.2695L64.5612 314.131C62.6978 313.382 61.3663 311.582 61.3209 309.456L58.6436 173.344L29.7142 310.761C29.3066 312.694 27.8745 314.195 26.0559 314.748L24.9683 323.245H7.52834L9.02929 313.864C7.57703 312.737 6.73538 310.883 7.02491 308.903L33.6589 126.775L57.7276 126.775L57.7262 126.706H86.8779L85.1305 309.201C85.1063 311.601 83.4388 313.609 81.1934 314.158Z" fill="#2F2F3D"/>
<path d="M86.8589 126.775H6.40443V324.2H86.8589V126.775Z" fill="#FCBDA4"/>
</g>
<path opacity="0.197824" fill-rule="evenodd" clip-rule="evenodd" d="M58.4957 175.501L63.5998 152.847L59.7597 221.528L58.4957 175.501Z" fill="black"/>
<mask id="mask4" mask-type="alpha" maskUnits="userSpaceOnUse" x="9" y="126" width="34" height="188">
<path d="M39.8861 126.947L42.6797 127.403L12.2147 313.004L9.41283 312.536L39.8861 126.947Z" fill="white"/>
</mask>
<g mask="url(#mask4)">
<path d="M39.8861 126.947L42.6797 127.403L12.2147 313.004L9.41283 312.536L39.8861 126.947Z" fill="#EFEFEF"/>
<path d="M42.8449 126.775H8.42155V312.987H42.8449V126.775Z" fill="#EFEFEF"/>
</g>
<mask id="mask5" mask-type="alpha" maskUnits="userSpaceOnUse" x="0" y="39" width="156" height="109">
<path d="M126.92 64.346L126.72 60.8904C126.72 60.8904 126.724 58.4859 127.036 55.8902C127.348 53.2946 129.15 50.2251 127.244 45.6429C125.339 41.0647 129.894 44.2257 130.903 46.4033C131.743 48.2187 131.299 52.0365 132.332 53.4339C133.204 52.9601 133.785 52.3431 133.785 52.3431L143.603 39.6753C143.92 39.2493 144.504 39.1219 144.972 39.3727L145.501 39.6594C146.057 39.9619 146.233 40.6706 145.877 41.1881C143.96 43.9868 138.02 52.1958 138.18 52.2794L138.44 52.5939L149.972 40.4994C150.332 40.0973 150.936 40.0256 151.381 40.3322L152.073 40.8099C152.578 41.1563 152.686 41.849 152.309 42.3267C150.016 45.2727 141.41 54.6242 141.574 54.7158L141.918 55.0462L152.654 45.6151C153.034 45.1931 153.682 45.1453 154.123 45.4996L154.647 45.9256C155.107 46.2958 155.175 46.9686 154.799 47.4225L144.66 56.9054L144.952 57.3632L153.754 51.2125C154.159 50.8542 154.767 50.8542 155.175 51.2085L155.419 51.4274C155.852 51.8096 155.9 52.4665 155.524 52.9084C154.235 54.4252 150.232 56.9651 147.086 60.0982C144.644 62.5306 143.447 64.8357 140.037 67.5667C138.596 68.7252 137.311 69.3303 136.086 69.9713L126.92 64.346ZM47.7827 56.4177C47.7827 56.4177 54.5661 56.4046 59.4618 56.3882C64.3572 56.3715 70.5133 58.4301 70.5133 58.4301C70.5133 58.4301 73.7167 65.6263 62.5892 64.9746C51.4616 64.3221 47.7827 56.4177 47.7827 56.4177ZM0.0676072 110.902C-0.17856 101.838 10.6804 85.5382 10.6804 85.5382L29.6877 93.998L21.8668 110.657L43.3725 140.639L34.5193 147.85C34.5193 147.85 0.358204 121.59 0.0676072 110.902Z" fill="white"/>
</mask>
<g mask="url(#mask5)">
<path d="M126.92 64.346L126.72 60.8904C126.72 60.8904 126.724 58.4859 127.036 55.8902C127.348 53.2946 129.15 50.2251 127.244 45.6429C125.339 41.0647 129.894 44.2257 130.903 46.4033C131.743 48.2187 131.299 52.0365 132.332 53.4339C133.204 52.9601 133.785 52.3431 133.785 52.3431L143.603 39.6753C143.92 39.2493 144.504 39.1219 144.972 39.3727L145.501 39.6594C146.057 39.9619 146.233 40.6706 145.877 41.1881C143.96 43.9868 138.02 52.1958 138.18 52.2794L138.44 52.5939L149.972 40.4994C150.332 40.0973 150.936 40.0256 151.381 40.3322L152.073 40.8099C152.578 41.1563 152.686 41.849 152.309 42.3267C150.016 45.2727 141.41 54.6242 141.574 54.7158L141.918 55.0462L152.654 45.6151C153.034 45.1931 153.682 45.1453 154.123 45.4996L154.647 45.9256C155.107 46.2958 155.175 46.9686 154.799 47.4225L144.66 56.9054L144.952 57.3632L153.754 51.2125C154.159 50.8542 154.767 50.8542 155.175 51.2085L155.419 51.4274C155.852 51.8096 155.9 52.4665 155.524 52.9084C154.235 54.4252 150.232 56.9651 147.086 60.0982C144.644 62.5306 143.447 64.8357 140.037 67.5667C138.596 68.7252 137.311 69.3303 136.086 69.9713L126.92 64.346ZM47.7827 56.4177C47.7827 56.4177 54.5661 56.4046 59.4618 56.3882C64.3572 56.3715 70.5133 58.4301 70.5133 58.4301C70.5133 58.4301 73.7167 65.6263 62.5892 64.9746C51.4616 64.3221 47.7827 56.4177 47.7827 56.4177ZM0.0676072 110.902C-0.17856 101.838 10.6804 85.5382 10.6804 85.5382L29.6877 93.998L21.8668 110.657L43.3725 140.639L34.5193 147.85C34.5193 147.85 0.358204 121.59 0.0676072 110.902Z" fill="#E576C6"/>
<path d="M156.106 39.2448H23.6161V153.375H156.106V39.2448Z" fill="#E576C6"/>
</g>
<mask id="mask6" mask-type="alpha" maskUnits="userSpaceOnUse" x="0" y="56" width="143" height="93">
<path d="M40.7991 127.57L46.0874 134.666L30.1586 148.549C30.1586 148.549 0.92804 127.127 0.0254284 110.331C-0.549361 99.6326 8.81098 84.3616 8.81098 84.3616C8.81098 84.3616 20.5597 65.5865 34.1409 59.2502C36.928 57.9498 43.6854 56.8652 47.7817 56.4177C49.0373 56.2805 48.2866 56.7697 48.7177 57.5976C49.168 58.4626 50.5388 59.7443 51.4871 60.7022C53.4609 62.6962 57.3508 64.206 59.4403 64.5151C61.0326 64.7506 64.1101 65.116 65.5904 64.9172C67.0707 64.7183 68.6802 64.0501 69.1104 63.6532C69.5405 63.2562 70.1803 62.7595 70.5123 61.9943C70.8442 61.2292 70.8274 61.4484 70.8274 60.7426C70.8274 60.0368 70.7909 60.1411 70.7218 59.8052C70.6527 59.4693 70.6527 59.2674 70.612 59.0938C70.4318 58.3257 70.5123 58.4301 70.5123 58.4301C78.5295 60.8513 82.5906 61.7473 85.5113 65.2695L107.832 80.9318L123.104 61.0062L142.809 74.2353C142.809 74.2353 125.362 106.737 112.717 110.33C102.532 113.225 92.213 104.223 88.585 100.613L92.8955 122.492C93.5864 126.27 90.2782 127.7 87.3306 127.566L40.7991 127.57Z" fill="white"/>
</mask>
<g mask="url(#mask6)">
<path d="M40.7991 127.57L46.0874 134.666L30.1586 148.549C30.1586 148.549 0.92804 127.127 0.0254284 110.331C-0.549361 99.6326 8.81098 84.3616 8.81098 84.3616C8.81098 84.3616 20.5597 65.5865 34.1409 59.2502C36.928 57.9498 43.6854 56.8652 47.7817 56.4177C49.0373 56.2805 48.2866 56.7697 48.7177 57.5976C49.168 58.4626 50.5388 59.7443 51.4871 60.7022C53.4609 62.6962 57.3508 64.206 59.4403 64.5151C61.0326 64.7506 64.1101 65.116 65.5904 64.9172C67.0707 64.7183 68.6802 64.0501 69.1104 63.6532C69.5405 63.2562 70.1803 62.7595 70.5123 61.9943C70.8442 61.2292 70.8274 61.4484 70.8274 60.7426C70.8274 60.0368 70.7909 60.1411 70.7218 59.8052C70.6527 59.4693 70.6527 59.2674 70.612 59.0938C70.4318 58.3257 70.5123 58.4301 70.5123 58.4301C78.5295 60.8513 82.5906 61.7473 85.5113 65.2695L107.832 80.9318L123.104 61.0062L142.809 74.2353C142.809 74.2353 125.362 106.737 112.717 110.33C102.532 113.225 92.213 104.223 88.585 100.613L92.8955 122.492C93.5864 126.27 90.2782 127.7 87.3306 127.566L40.7991 127.57Z" fill="#72A065"/>
<path d="M142.897 56.3628H8.39233e-05L8.39233e-05 148.868H142.897V56.3628Z" fill="#72A065"/>
</g>
<path opacity="0.201242" fill-rule="evenodd" clip-rule="evenodd" d="M88.5173 100.626L85.8495 90.0842L93.0528 104.491L88.5173 100.626Z" fill="black"/>
<path opacity="0.200591" d="M38.8209 125.03L26.3817 107.39L41.4075 84.6064" stroke="black" stroke-width="5"/>
</svg>
