<svg width="550" height="550" xmlns="http://www.w3.org/2000/svg">

 <g>
  <title>background</title>
  <rect fill="none" id="canvas_background" height="552" width="552" y="-1" x="-1"/>
 </g>
 <g>
  <title>Layer 1</title>
  <rect stroke="#0f0f00" stroke-opacity="0" fill-opacity="0.5" rx="20" id="svg_25" height="308.000026" width="472.999972" y="140.453116" x="14.500028" stroke-width="0" fill="#00e676"/>
  <g id="svg_1">
   <g id="svg_2">
    <path id="svg_3" d="m160.489,89.979l-0.125,0c-5.523,0 -10,4.477 -10,10s4.477,10 10,10l0.125,0c5.523,0 10,-4.477 10,-10s-4.477,-10 -10,-10z"/>
   </g>
  </g>
  <g id="svg_4">
   <g id="svg_5">
    <path id="svg_6" d="m495,89.979l-289.932,0c-5.523,0 -10,4.477 -10,10s4.477,10 10,10l289.932,0c0.518,0 1.027,0.039 1.535,0.078l-27.943,27.943l-130.442,0c-5.523,0 -10,4.477 -10,10s4.477,10 10,10l110.442,0l-139.389,139.389c-16.654,16.654 -43.752,16.655 -60.406,0l-187.332,-187.332c0.508,-0.039 1.017,-0.078 1.535,-0.078l53,0c5.523,0 10,-4.477 10,-10s-4.477,-10 -10,-10l-53,0c-22.056,0 -40,17.944 -40,40l0,266.042c0,22.056 17.944,40 40,40l432,0c22.056,0 40,-17.944 40,-40l0,-266.042c0,-22.056 -17.944,-40 -40,-40zm-452,306.042l0,-266.042c0,-2.957 0.662,-5.756 1.819,-8.284l139.182,139.182l-140.302,140.302c-0.441,-1.649 -0.699,-3.372 -0.699,-5.158zm452,20l-432,0c-1.786,0 -3.509,-0.258 -5.158,-0.699l140.302,-140.302l36.512,36.512c12.225,12.225 28.284,18.338 44.344,18.338s32.119,-6.113 44.345,-18.338l36.511,-36.512l140.302,140.302c-1.649,0.441 -3.372,0.699 -5.158,0.699zm20,-20c0,1.786 -0.258,3.509 -0.699,5.158l-140.302,-140.301l139.182,-139.183c1.157,2.528 1.819,5.327 1.819,8.284l0,266.042z"/>
   </g>
  </g>
  <g id="svg_7">
   <g id="svg_8">
    <path id="svg_9" d="m296.3,138l-0.15,0c-5.523,0 -10,4.477 -10,10s4.477,10 10,10l0.15,0c5.523,0 10,-4.477 10,-10s-4.477,-10 -10,-10z"/>
   </g>
  </g>
  <g id="svg_10"/>
  <g id="svg_11"/>
  <g id="svg_12"/>
  <g id="svg_13"/>
  <g id="svg_14"/>
  <g id="svg_15"/>
  <g id="svg_16"/>
  <g id="svg_17"/>
  <g id="svg_18"/>
  <g id="svg_19"/>
  <g id="svg_20"/>
  <g id="svg_21"/>
  <g id="svg_22"/>
  <g id="svg_23"/>
  <g id="svg_24"/>
 </g>
</svg>