<svg width="512" height="512" xmlns="http://www.w3.org/2000/svg">

 <g>
  <title>background</title>
  <rect fill="none" id="canvas_background" height="402" width="582" y="-1" x="-1"/>
 </g>
 <g>
  <title>Layer 1</title>
  <rect stroke-opacity="0" rx="21" fill-opacity="0.5" stroke="#0f0f00" id="svg_4" height="464.222253" width="239.55555" y="48.671699" x="109.974731" stroke-width="0" fill="#00e676"/>
  <g id="Smartphone">
   <path id="svg_1" d="m352,8l-192,0a40.045,40.045 0 0 0 -40,40l0,416a40.045,40.045 0 0 0 40,40l192,0a40.045,40.045 0 0 0 40,-40l0,-416a40.045,40.045 0 0 0 -40,-40zm-41.758,16l-4.8,24l-98.883,0l-4.8,-24l108.483,0zm65.758,440a24.027,24.027 0 0 1 -24,24l-192,0a24.027,24.027 0 0 1 -24,-24l0,-416a24.027,24.027 0 0 1 24,-24l25.441,0l6.714,33.569a8,8 0 0 0 7.845,6.431l112,0a8,8 0 0 0 7.845,-6.431l6.714,-33.569l25.441,0a24.027,24.027 0 0 1 24,24l0,416z"/>
   <path id="svg_2" d="m208,456l-48,0a8,8 0 0 0 0,16l48,0a8,8 0 0 0 0,-16z"/>
   <path id="svg_3" d="m240,456l-8,0a8,8 0 0 0 0,16l8,0a8,8 0 0 0 0,-16z"/>
  </g>
 </g>
</svg>