<svg width="512" height="512" xmlns="http://www.w3.org/2000/svg">

 <g>
  <title>background</title>
  <rect fill="none" id="canvas_background" height="514" width="514" y="-1" x="-1"/>
 </g>
 <g>
  <title>Layer 1</title>
  <g stroke="null" fill-rule="evenodd" fill="none" id="Page-1">
   <rect stroke="#0f0f00" rx="62" stroke-opacity="0" fill-opacity="0.5" id="svg_1" height="295.714314" width="359.428553" y="103.881679" x="51.071452" stroke-width="0" fill="#00e676"/>
   <g stroke="null" fill-rule="nonzero" fill="rgb(0,0,0)" id="001---Speech-Bubble">
    <path stroke="null" d="m142.199999,388.666667l181.059731,0l54.039999,60.228866c2.397317,2.603055 5.770314,4.090185 9.309033,4.104467c2.045671,-0.001866 4.061428,-0.491442 5.880067,-1.4282c5.083749,-2.514211 7.875301,-8.102526 6.8322,-13.677267l-8.266833,-51.518133c34.741801,-8.353941 59.411382,-39.181637 59.945799,-74.909732l0,-167.266665c-0.046063,-42.617295 -34.582705,-77.153936 -77.199999,-77.199999l-231.599997,0c-42.617295,0.046063 -77.153936,34.582705 -77.199999,77.199999l0,167.266665c0.046063,42.617295 34.582705,77.153936 77.199999,77.199999zm-64.333333,-244.466664c0.038986,-35.514123 28.81921,-64.294347 64.333333,-64.333333l231.599997,0c35.514123,0.038986 64.294347,28.81921 64.333333,64.333333l0,167.266665c-0.509713,29.838186 -21.191014,55.530924 -50.231466,62.403333c-6.476372,1.607754 -10.636809,7.914222 -9.566367,14.500733l8.427667,51.820499l-53.930633,-60.145233c-2.444602,-2.708626 -5.924199,-4.251983 -9.5728,-4.246l-181.059731,0c-35.514123,-0.038986 -64.294347,-28.81921 -64.333333,-64.333333l0,-167.266665z" id="Shape"/>
    <path stroke="null" d="m103.6,144.200004c0.021294,-21.309387 17.290612,-38.578705 38.6,-38.6c3.553001,0 6.433333,-2.880332 6.433333,-6.433333s-2.880332,-6.433333 -6.433333,-6.433333c-28.411015,0.031909 -51.434757,23.055651 -51.466666,51.466666c0,3.553001 2.880332,6.433333 6.433333,6.433333s6.433333,-2.880332 6.433333,-6.433333z" id="Shape"/>
    <circle stroke="null" r="6.433334" cy="99.166671" cx="167.933332" id="Oval"/>
    <path stroke="null" d="m122.899999,227.833336c0,17.765135 14.401531,32.166666 32.166666,32.166666s32.166666,-14.401531 32.166666,-32.166666s-14.401531,-32.166666 -32.166666,-32.166666c-17.756321,0.021294 -32.145372,14.410345 -32.166666,32.166666zm32.166666,-19.3c10.659068,0 19.3,8.640932 19.3,19.3s-8.640932,19.3 -19.3,19.3s-19.3,-8.640932 -19.3,-19.3s8.640932,-19.3 19.3,-19.3z" id="Shape"/>
    <path stroke="null" d="m257.999998,260.000002c17.765135,0 32.166666,-14.401531 32.166666,-32.166666s-14.401531,-32.166666 -32.166666,-32.166666s-32.166666,14.401531 -32.166666,32.166666c0.021294,17.756321 14.410345,32.145372 32.166666,32.166666zm0,-51.466666c10.659068,0 19.3,8.640932 19.3,19.3s-8.640932,19.3 -19.3,19.3s-19.3,-8.640932 -19.3,-19.3s8.640932,-19.3 19.3,-19.3z" id="Shape"/>
    <path stroke="null" d="m360.93333,260.000002c17.765135,0 32.166666,-14.401531 32.166666,-32.166666s-14.401531,-32.166666 -32.166666,-32.166666s-32.166666,14.401531 -32.166666,32.166666c0.021294,17.756321 14.410345,32.145372 32.166666,32.166666zm0,-51.466666c10.659068,0 19.3,8.640932 19.3,19.3s-8.640932,19.3 -19.3,19.3s-19.3,-8.640932 -19.3,-19.3s8.640932,-19.3 19.3,-19.3z" id="Shape"/>
   </g>
  </g>
 </g>
</svg>